<?xml version="1.0" encoding="UTF-8"?>
<!DOCTYPE svg PUBLIC "-//W3C//DTD SVG 1.1//EN" "http://www.w3.org/Graphics/SVG/1.1/DTD/svg11.dtd">
<svg xmlns="http://www.w3.org/2000/svg" version="1.1" width="254px" height="192px" style="shape-rendering:geometricPrecision; text-rendering:geometricPrecision; image-rendering:optimizeQuality; fill-rule:evenodd; clip-rule:evenodd" xmlns:xlink="http://www.w3.org/1999/xlink">
<g><path style="opacity:1" fill="#527deb" d="M 17.5,-0.5 C 76.5,-0.5 135.5,-0.5 194.5,-0.5C 194.5,-0.166667 194.5,0.166667 194.5,0.5C 183.167,0.5 171.833,0.5 160.5,0.5C 150.5,0.5 140.5,0.5 130.5,0.5C 122.5,0.5 114.5,0.5 106.5,0.5C 88.4969,0.33339 70.4969,0.500057 52.5,1C 62.2138,1.19166 71.8805,1.69166 81.5,2.5C 83.2237,1.33865 84.8904,1.50532 86.5,3C 81.8218,3.19674 81.4884,4.19674 85.5,6C 81.1321,6.70894 76.7988,6.54227 72.5,5.5C 65.1348,7.26383 65.8015,8.26383 74.5,8.5C 74.5,9.5 74.5,10.5 74.5,11.5C 71.8127,11.3359 69.146,11.5026 66.5,12C 72.8333,12.3333 79.1667,12.6667 85.5,13C 84.5,13.3333 83.5,13.6667 82.5,14C 107.498,14.5 132.498,14.6666 157.5,14.5C 181.672,14.1691 205.672,14.5024 229.5,15.5C 159.459,15.1733 89.4587,15.5066 19.5,16.5C 17.0069,16.9762 15.0069,18.3096 13.5,20.5C 11.7208,27.0206 11.3874,33.6873 12.5,40.5C 11.3349,41.4961 10.6682,42.8295 10.5,44.5C 11.3475,49.0622 11.6809,53.5622 11.5,58C 11.3535,59.7271 10.6869,59.8938 9.5,58.5C 8.79516,56.3279 7.79516,54.3279 6.5,52.5C 7.02527,51.8076 7.69194,51.3076 8.5,51C 7.42575,50.2613 6.75908,49.2613 6.5,48C 7.6584,45.49 8.32507,42.8233 8.5,40C 8.37435,32.1969 8.04102,24.3635 7.5,16.5C 6.58545,20.8149 5.75212,25.1483 5,29.5C 4.83312,52.174 4.33312,74.8407 3.5,97.5C 2.83332,84.0061 2.16666,70.6728 1.5,57.5C 1.28198,48.3169 0.615313,39.3169 -0.5,30.5C -0.5,25.8333 -0.5,21.1667 -0.5,16.5C 2.23173,7.43642 8.23173,1.76976 17.5,-0.5 Z"/></g>
<g><path style="opacity:1" fill="#5173f4" d="M 106.5,0.5 C 106.67,1.82207 106.337,2.98873 105.5,4C 108.544,4.35886 108.878,5.02552 106.5,6C 99.8333,6.33333 93.1667,6.66667 86.5,7C 89.7895,7.88161 93.1228,8.54828 96.5,9C 94.1861,10.3983 91.8528,10.565 89.5,9.5C 88.3279,9.91862 87.3279,10.5853 86.5,11.5C 93.1335,12.4967 99.8002,12.83 106.5,12.5C 113.833,12.5 121.167,12.5 128.5,12.5C 136.833,12.5 145.167,12.5 153.5,12.5C 154.995,12.9887 156.329,13.6554 157.5,14.5C 132.498,14.6666 107.498,14.5 82.5,14C 83.5,13.6667 84.5,13.3333 85.5,13C 79.1667,12.6667 72.8333,12.3333 66.5,12C 69.146,11.5026 71.8127,11.3359 74.5,11.5C 74.5,10.5 74.5,9.5 74.5,8.5C 65.8015,8.26383 65.1348,7.26383 72.5,5.5C 76.7988,6.54227 81.1321,6.70894 85.5,6C 81.4884,4.19674 81.8218,3.19674 86.5,3C 84.8904,1.50532 83.2237,1.33865 81.5,2.5C 71.8805,1.69166 62.2138,1.19166 52.5,1C 70.4969,0.500057 88.4969,0.33339 106.5,0.5 Z"/></g>
<g><path style="opacity:1" fill="#516ef7" d="M 106.5,0.5 C 114.5,0.5 122.5,0.5 130.5,0.5C 130.5,0.833333 130.5,1.16667 130.5,1.5C 112.036,3.5919 112.036,4.75857 130.5,5C 122.661,7.13331 114.661,8.29998 106.5,8.5C 106.5,9.83333 106.5,11.1667 106.5,12.5C 99.8002,12.83 93.1335,12.4967 86.5,11.5C 87.3279,10.5853 88.3279,9.91862 89.5,9.5C 91.8528,10.565 94.1861,10.3983 96.5,9C 93.1228,8.54828 89.7895,7.88161 86.5,7C 93.1667,6.66667 99.8333,6.33333 106.5,6C 108.878,5.02552 108.544,4.35886 105.5,4C 106.337,2.98873 106.67,1.82207 106.5,0.5 Z"/></g>
<g><path style="opacity:1" fill="#5869f9" d="M 130.5,1.5 C 136.509,1.33385 142.509,1.50051 148.5,2C 147.833,2.66667 147.167,3.33333 146.5,4C 149.226,4.18156 151.893,4.68156 154.5,5.5C 150.204,6.32752 145.871,6.82752 141.5,7C 142.167,7.33333 142.833,7.66667 143.5,8C 138.184,9.25069 133.184,10.7507 128.5,12.5C 121.167,12.5 113.833,12.5 106.5,12.5C 106.5,11.1667 106.5,9.83333 106.5,8.5C 114.661,8.29998 122.661,7.13331 130.5,5C 112.036,4.75857 112.036,3.5919 130.5,1.5 Z"/></g>
<g><path style="opacity:1" fill="#6062f6" d="M 130.5,1.5 C 130.5,1.16667 130.5,0.833333 130.5,0.5C 140.5,0.5 150.5,0.5 160.5,0.5C 164.982,1.3255 169.649,1.8255 174.5,2C 170.381,2.14319 166.381,2.80986 162.5,4C 163.833,4.66667 165.167,5.33333 166.5,6C 165.692,6.30762 165.025,6.80762 164.5,7.5C 168.99,8.59688 173.323,9.26355 177.5,9.5C 169.855,10.3315 162.188,10.8315 154.5,11C 153.944,11.3826 153.611,11.8826 153.5,12.5C 145.167,12.5 136.833,12.5 128.5,12.5C 133.184,10.7507 138.184,9.25069 143.5,8C 142.833,7.66667 142.167,7.33333 141.5,7C 145.871,6.82752 150.204,6.32752 154.5,5.5C 151.893,4.68156 149.226,4.18156 146.5,4C 147.167,3.33333 147.833,2.66667 148.5,2C 142.509,1.50051 136.509,1.33385 130.5,1.5 Z"/></g>
<g><path style="opacity:1" fill="#6858f2" d="M 160.5,0.5 C 171.833,0.5 183.167,0.5 194.5,0.5C 209.17,0.333419 223.837,0.500086 238.5,1C 239.416,1.27842 240.082,1.77842 240.5,2.5C 237.091,2.24933 233.758,2.58266 230.5,3.5C 227.352,2.78781 224.186,2.12114 221,1.5C 209.154,2.15664 197.321,2.8233 185.5,3.5C 184.833,3.16667 184.167,2.83333 183.5,2.5C 181.224,3.21319 178.891,3.71319 176.5,4C 185.55,4.15345 194.55,4.82012 203.5,6C 195.812,6.16855 188.145,6.66855 180.5,7.5C 186.472,8.33028 192.472,8.83028 198.5,9C 194.804,10.9691 190.804,11.9691 186.5,12C 201.178,12.1672 215.845,12.6672 230.5,13.5C 231.612,14.2652 232.279,15.2652 232.5,16.5C 232.167,16.5 231.833,16.5 231.5,16.5C 230.833,16.5 230.167,16.5 229.5,16.5C 229.5,16.1667 229.5,15.8333 229.5,15.5C 205.672,14.5024 181.672,14.1691 157.5,14.5C 156.329,13.6554 154.995,12.9887 153.5,12.5C 153.611,11.8826 153.944,11.3826 154.5,11C 162.188,10.8315 169.855,10.3315 177.5,9.5C 173.323,9.26355 168.99,8.59688 164.5,7.5C 165.025,6.80762 165.692,6.30762 166.5,6C 165.167,5.33333 163.833,4.66667 162.5,4C 166.381,2.80986 170.381,2.14319 174.5,2C 169.649,1.8255 164.982,1.3255 160.5,0.5 Z"/></g>
<g><path style="opacity:1" fill="#704ff6" d="M 240.5,2.5 C 245.865,5.53297 249.865,9.8663 252.5,15.5C 252.5,20.5 252.5,25.5 252.5,30.5C 250.5,30.5 248.5,30.5 246.5,30.5C 245.995,27.6568 244.995,24.9902 243.5,22.5C 243.545,19.8105 244.879,18.4772 247.5,18.5C 247.343,19.8734 247.51,21.2068 248,22.5C 248.667,23.8333 249.333,23.8333 250,22.5C 251.48,15.4495 248.647,12.9495 241.5,15C 239.984,16.897 239.317,19.0637 239.5,21.5C 238.596,20.791 238.263,19.791 238.5,18.5C 237.5,18.5 236.5,18.5 235.5,18.5C 234.778,17.4489 233.778,16.7822 232.5,16.5C 232.279,15.2652 231.612,14.2652 230.5,13.5C 215.845,12.6672 201.178,12.1672 186.5,12C 190.804,11.9691 194.804,10.9691 198.5,9C 192.472,8.83028 186.472,8.33028 180.5,7.5C 188.145,6.66855 195.812,6.16855 203.5,6C 194.55,4.82012 185.55,4.15345 176.5,4C 178.891,3.71319 181.224,3.21319 183.5,2.5C 184.167,2.83333 184.833,3.16667 185.5,3.5C 197.321,2.8233 209.154,2.15664 221,1.5C 224.186,2.12114 227.352,2.78781 230.5,3.5C 233.758,2.58266 237.091,2.24933 240.5,2.5 Z"/></g>
<g><path style="opacity:1" fill="#0a134b" d="M 229.5,15.5 C 229.5,15.8333 229.5,16.1667 229.5,16.5C 161.492,15.8367 93.8251,16.5034 26.5,18.5C 23.1667,19.1667 19.8333,19.8333 16.5,20.5C 17.5,19.1667 18.5,17.8333 19.5,16.5C 89.4587,15.5066 159.459,15.1733 229.5,15.5 Z"/></g>
<g><path style="opacity:1" fill="#000107" d="M 26.5,18.5 C 26.7911,19.6491 27.6244,20.3158 29,20.5C 33.7161,19.7547 38.3828,20.0881 43,21.5C 52.2622,20.9554 61.7622,20.6221 71.5,20.5C 78.5,20.6667 85.5,20.8333 92.5,21C 93.4296,21.9907 94.5962,22.4907 96,22.5C 113.122,20.9361 130.289,19.9361 147.5,19.5C 160.483,20.4014 173.483,20.7348 186.5,20.5C 186.5,21.8333 186.5,23.1667 186.5,24.5C 133.163,24.1667 79.8292,24.5001 26.5,25.5C 37.1667,26.1667 47.8333,26.8333 58.5,27.5C 49.7253,27.952 41.0586,28.952 32.5,30.5C 30.6663,29.2455 28.6663,28.5789 26.5,28.5C 25.9709,32.3506 26.6375,35.8506 28.5,39C 26.8934,40.049 26.2267,41.549 26.5,43.5C 29.1667,42.8333 31.8333,42.1667 34.5,41.5C 34.5,40.5 34.5,39.5 34.5,38.5C 35.8333,38.5 37.1667,38.5 38.5,38.5C 38.5,41.1667 38.5,43.8333 38.5,46.5C 37.1667,46.5 35.8333,46.5 34.5,46.5C 33.9715,55.877 33.9715,62.5437 34.5,66.5C 37.7107,66.012 40.544,66.6787 43,68.5C 45.9252,63.177 48.4252,63.5103 50.5,69.5C 48.8918,70.2421 47.2251,70.4087 45.5,70C 46.3802,71.3561 46.7135,72.8561 46.5,74.5C 45.1667,74.5 43.8333,74.5 42.5,74.5C 42.5,73.1667 42.5,71.8333 42.5,70.5C 40.8333,70.5 39.1667,70.5 37.5,70.5C 37.5,73.1667 37.5,75.8333 37.5,78.5C 33.8815,79.2436 30.2148,79.577 26.5,79.5C 26.703,77.3618 27.703,75.6951 29.5,74.5C 28.8244,72.6465 27.8244,72.3131 26.5,73.5C 25.846,75.1151 25.346,76.7818 25,78.5C 24.7811,77.062 24.2811,75.7287 23.5,74.5C 23.1667,75.1667 22.8333,75.8333 22.5,76.5C 24.1235,93.1169 24.7902,109.784 24.5,126.5C 26.1667,126.5 27.8333,126.5 29.5,126.5C 29.5,129.167 29.5,131.833 29.5,134.5C 28.5,134.5 27.5,134.5 26.5,134.5C 26.5,133.167 26.5,131.833 26.5,130.5C 25.1667,130.5 23.8333,130.5 22.5,130.5C 21.8333,133.167 21.1667,135.833 20.5,138.5C 21.8333,138.5 23.1667,138.5 24.5,138.5C 24.5,145.167 24.5,151.833 24.5,158.5C 21.8333,159.167 19.1667,159.833 16.5,160.5C 17.8121,138.648 18.4787,116.648 18.5,94.5C 18.1667,73.1667 17.8333,51.8333 17.5,30.5C 17.1635,68.1756 16.1635,105.509 14.5,142.5C 14.3333,105.165 14.5,67.8318 15,30.5C 15.3386,27.1204 15.8386,23.7871 16.5,20.5C 19.8333,19.8333 23.1667,19.1667 26.5,18.5 Z"/></g>
<g><path style="opacity:1" fill="#00000b" d="M 229.5,16.5 C 230.167,16.5 230.833,16.5 231.5,16.5C 231.727,18.9975 233.06,20.6641 235.5,21.5C 236.189,23.444 236.689,25.444 237,27.5C 237.5,73.8321 237.667,120.165 237.5,166.5C 236.5,167.833 235.5,169.167 234.5,170.5C 230.778,169.68 228.445,171.013 227.5,174.5C 226.167,174.5 224.833,174.5 223.5,174.5C 223.721,173.265 224.388,172.265 225.5,171.5C 224.263,170.719 223.263,169.719 222.5,168.5C 225.845,167.76 229.178,168.093 232.5,169.5C 234.571,168.214 234.904,166.547 233.5,164.5C 232.808,165.025 232.308,165.692 232,166.5C 231.612,165.572 230.945,164.905 230,164.5C 228.003,166.379 225.836,166.712 223.5,165.5C 225.937,163.208 228.604,161.208 231.5,159.5C 230,159.167 228.5,158.833 227,158.5C 224.113,159.104 221.28,159.771 218.5,160.5C 218.5,163.833 218.5,167.167 218.5,170.5C 217.5,170.5 216.5,170.5 215.5,170.5C 215.657,169.127 215.49,167.793 215,166.5C 214.667,167.167 214.333,167.833 214,168.5C 213.696,166.559 212.863,164.893 211.5,163.5C 211.846,162.304 212.346,162.304 213,163.5C 213.783,161.567 213.283,160.067 211.5,159C 213.833,158.667 216.167,158.333 218.5,158C 220.833,155.667 223.167,153.333 225.5,151C 224.552,150.517 223.552,150.351 222.5,150.5C 222.5,147.833 222.5,145.167 222.5,142.5C 216.656,139.83 210.989,137.497 205.5,135.5C 203.548,136.208 201.881,137.375 200.5,139C 202.595,139.556 202.762,140.056 201,140.5C 199.235,139.768 198.068,138.435 197.5,136.5C 196.833,137.167 196.167,137.833 195.5,138.5C 194.402,137.385 193.235,137.385 192,138.5C 190.278,138.389 190.112,137.889 191.5,137C 185.163,136.163 185.497,135.497 192.5,135C 191.5,134.667 190.5,134.333 189.5,134C 193.891,132.923 198.224,131.757 202.5,130.5C 202.5,129.167 202.5,127.833 202.5,126.5C 201.5,126.5 200.5,126.5 199.5,126.5C 199.657,125.127 199.49,123.793 199,122.5C 198.667,123.167 198.333,123.833 198,124.5C 197.059,122.273 195.892,120.273 194.5,118.5C 193.833,115.833 192.167,114.167 189.5,113.5C 186.416,110.919 182.75,109.919 178.5,110.5C 178.227,108.549 178.893,107.049 180.5,106C 179.167,105.667 177.833,105.333 176.5,105C 178.485,103.003 180.819,102.336 183.5,103C 182.346,103.914 182.513,104.747 184,105.5C 185.706,104.692 186.539,103.359 186.5,101.5C 192.656,101.675 195.323,98.6749 194.5,92.5C 196.033,90.6452 197.7,88.8119 199.5,87C 198.577,84.9592 198.244,82.7925 198.5,80.5C 196.508,80.6715 194.842,80.0049 193.5,78.5C 192.378,80.0436 192.711,81.377 194.5,82.5C 192.441,83.567 190.608,84.9004 189,86.5C 172.441,84.7107 155.608,84.0441 138.5,84.5C 138.5,83.1667 138.5,81.8333 138.5,80.5C 133.156,80.666 127.823,80.4994 122.5,80C 125.146,79.5026 127.813,79.3359 130.5,79.5C 130.5,78.5 130.5,77.5 130.5,76.5C 129.167,76.5 127.833,76.5 126.5,76.5C 126.5,75.1667 126.5,73.8333 126.5,72.5C 122.029,72.3276 121.696,71.4943 125.5,70C 124.743,68.4878 123.743,67.1545 122.5,66C 119.821,66.1575 117.154,66.6575 114.5,67.5C 114.5,68.5 114.5,69.5 114.5,70.5C 118.312,71.6631 120.312,74.3298 120.5,78.5C 117.52,78.7589 115.687,77.4256 115,74.5C 114.505,76.4727 114.338,78.4727 114.5,80.5C 109.156,80.666 103.823,80.4994 98.5,80C 101.167,79.6667 103.833,79.3333 106.5,79C 105,78.8333 103.5,78.6667 102,78.5C 98.2287,79.6271 94.3954,80.2937 90.5,80.5C 90.5,81.8333 90.5,83.1667 90.5,84.5C 86.4068,84.5222 82.4068,85.1888 78.5,86.5C 74.1009,86.4717 73.7675,85.9717 77.5,85C 71.0152,84.9208 64.6819,84.0875 58.5,82.5C 59.3307,78.5239 59.4973,74.5239 59,70.5C 58.8142,72.9005 58.3142,75.2338 57.5,77.5C 55.5483,75.2588 53.3816,73.2588 51,71.5C 50.5172,72.448 50.3505,73.448 50.5,74.5C 49.1667,74.5 47.8333,74.5 46.5,74.5C 46.7135,72.8561 46.3802,71.3561 45.5,70C 47.2251,70.4087 48.8918,70.2421 50.5,69.5C 48.4252,63.5103 45.9252,63.177 43,68.5C 40.544,66.6787 37.7107,66.012 34.5,66.5C 33.9715,62.5437 33.9715,55.877 34.5,46.5C 35.8333,46.5 37.1667,46.5 38.5,46.5C 38.5,43.8333 38.5,41.1667 38.5,38.5C 37.1667,38.5 35.8333,38.5 34.5,38.5C 34.5,39.5 34.5,40.5 34.5,41.5C 31.8333,42.1667 29.1667,42.8333 26.5,43.5C 26.2267,41.549 26.8934,40.049 28.5,39C 26.6375,35.8506 25.9709,32.3506 26.5,28.5C 28.6663,28.5789 30.6663,29.2455 32.5,30.5C 41.0586,28.952 49.7253,27.952 58.5,27.5C 47.8333,26.8333 37.1667,26.1667 26.5,25.5C 79.8292,24.5001 133.163,24.1667 186.5,24.5C 186.5,23.1667 186.5,21.8333 186.5,20.5C 173.483,20.7348 160.483,20.4014 147.5,19.5C 130.289,19.9361 113.122,20.9361 96,22.5C 94.5962,22.4907 93.4296,21.9907 92.5,21C 85.5,20.8333 78.5,20.6667 71.5,20.5C 61.7622,20.6221 52.2622,20.9554 43,21.5C 38.3828,20.0881 33.7161,19.7547 29,20.5C 27.6244,20.3158 26.7911,19.6491 26.5,18.5C 93.8251,16.5034 161.492,15.8367 229.5,16.5 Z"/></g>
<g><path style="opacity:1" fill="#5589e9" d="M 19.5,16.5 C 18.5,17.8333 17.5,19.1667 16.5,20.5C 15.0337,21.347 14.2004,22.6803 14,24.5C 13.1684,72.0018 13.3351,119.335 14.5,166.5C 15.1429,168.076 16.1429,169.41 17.5,170.5C 18.5274,172.194 19.8608,173.527 21.5,174.5C 15.2616,172.753 11.595,168.587 10.5,162C 10.8618,160.566 11.5285,159.399 12.5,158.5C 12.5,119.167 12.5,79.8333 12.5,40.5C 11.3874,33.6873 11.7208,27.0206 13.5,20.5C 15.0069,18.3096 17.0069,16.9762 19.5,16.5 Z"/></g>
<g><path style="opacity:1" fill="#447de4" d="M -0.5,30.5 C 0.615313,39.3169 1.28198,48.3169 1.5,57.5C 1.54488,75.1731 1.21154,92.8398 0.5,110.5C 0.505094,116.211 1.17176,121.544 2.5,126.5C 1.43767,141.474 0.937672,156.474 1,171.5C 2.01602,172.634 2.68268,172.301 3,170.5C 3.16667,171 3.33333,171.5 3.5,172C 1.30771,174.606 0.974374,177.439 2.5,180.5C 1.06521,179.087 0.0652098,177.42 -0.5,175.5C -0.5,127.167 -0.5,78.8333 -0.5,30.5 Z"/></g>
<g><path style="opacity:1" fill="#4181f5" d="M 12.5,40.5 C 12.5,79.8333 12.5,119.167 12.5,158.5C 11.8333,134.663 11.1667,110.663 10.5,86.5C 9.18323,75.9249 8.51656,75.9249 8.5,86.5C 8.56228,89.6128 9.22895,92.4461 10.5,95C 7.83333,97.3333 7.83333,99.6667 10.5,102C 8.9246,111.638 7.59126,121.471 6.5,131.5C 7.83333,138.167 7.83333,144.833 6.5,151.5C 7.86938,156.37 8.53605,161.37 8.5,166.5C 7.17989,171.66 7.84655,176.326 10.5,180.5C 10.1667,181.167 9.83333,181.833 9.5,182.5C 7.58793,180.343 5.92126,178.009 4.5,175.5C 5.73186,172.7 6.39853,169.7 6.5,166.5C 5.49034,152.832 4.15701,139.498 2.5,126.5C 1.17176,121.544 0.505094,116.211 0.5,110.5C 1.21154,92.8398 1.54488,75.1731 1.5,57.5C 2.16666,70.6728 2.83332,84.0061 3.5,97.5C 4.33312,74.8407 4.83312,52.174 5,29.5C 5.75212,25.1483 6.58545,20.8149 7.5,16.5C 8.04102,24.3635 8.37435,32.1969 8.5,40C 8.32507,42.8233 7.6584,45.49 6.5,48C 6.75908,49.2613 7.42575,50.2613 8.5,51C 7.69194,51.3076 7.02527,51.8076 6.5,52.5C 7.79516,54.3279 8.79516,56.3279 9.5,58.5C 10.6869,59.8938 11.3535,59.7271 11.5,58C 11.6809,53.5622 11.3475,49.0622 10.5,44.5C 10.6682,42.8295 11.3349,41.4961 12.5,40.5 Z"/></g>
<g><path style="opacity:1" fill="#00000c" d="M 46.5,74.5 C 46.5,81.1667 46.5,87.8333 46.5,94.5C 48.1667,94.5 49.8333,94.5 51.5,94.5C 51.3379,96.5273 51.5045,98.5273 52,100.5C 53.5185,100.057 54.6852,100.724 55.5,102.5C 56.1667,102.167 56.8333,101.833 57.5,101.5C 58.2298,102.934 59.2298,104.1 60.5,105C 57.9368,107.526 58.6034,109.193 62.5,110C 61.2068,110.49 59.8734,110.657 58.5,110.5C 58.2155,112.415 58.5489,114.081 59.5,115.5C 58.6314,117.717 58.298,120.05 58.5,122.5C 57.6909,120.708 57.1909,118.708 57,116.5C 55.9563,117.623 55.2896,118.956 55,120.5C 54.5172,119.552 54.3505,118.552 54.5,117.5C 53.1667,117.5 51.8333,117.5 50.5,117.5C 50.3303,120.266 49.6636,122.933 48.5,125.5C 50.1329,129.293 52.6329,132.293 56,134.5C 61.6254,132.952 67.2921,131.619 73,130.5C 77.8666,130.475 82.3666,131.642 86.5,134C 83.1667,134.333 79.8333,134.667 76.5,135C 80.5,135.667 84.5,135.667 88.5,135C 89.9733,134.29 90.6399,133.124 90.5,131.5C 107.811,131.906 125.145,132.073 142.5,132C 135.833,132.333 129.167,132.667 122.5,133C 130.167,133.333 137.833,133.667 145.5,134C 126.856,135.403 108.189,136.403 89.5,137C 90.5,137.333 91.5,137.667 92.5,138C 89.1667,138.667 85.8333,138.667 82.5,138C 84.5,137.667 86.5,137.333 88.5,137C 80.8333,136.333 73.1667,136.333 65.5,137C 63.6503,139.033 62.9836,139.033 63.5,137C 61.5,136.333 59.5,136.333 57.5,137C 58.5,137.333 59.5,137.667 60.5,138C 58.5665,138.783 57.0665,138.283 56,136.5C 54.5341,138.325 52.7008,138.825 50.5,138C 52.9915,136.751 52.8249,135.584 50,134.5C 49.2613,135.574 48.2613,136.241 47,136.5C 42.8212,136.626 38.6546,135.96 34.5,134.5C 34.7167,137.435 35.3834,140.269 36.5,143C 36.2451,144.326 35.5784,145.326 34.5,146C 35.0126,148.718 35.0126,151.551 34.5,154.5C 31.8333,154.5 29.1667,154.5 26.5,154.5C 26.6543,160.229 23.9876,163.562 18.5,164.5C 17.8313,168.73 19.498,170.563 23.5,170C 24.0712,168.795 24.7379,167.628 25.5,166.5C 26.6956,166.846 26.6956,167.346 25.5,168C 27.7801,168.212 29.7801,169.045 31.5,170.5C 32.731,171.651 32.731,172.817 31.5,174C 32.6721,174.419 33.6721,175.085 34.5,176C 32.085,177.465 31.085,179.632 31.5,182.5C 29.3072,180.478 28.3072,177.811 28.5,174.5C 26.1667,174.5 23.8333,174.5 21.5,174.5C 19.8608,173.527 18.5274,172.194 17.5,170.5C 17.6576,167.098 17.3242,163.764 16.5,160.5C 19.1667,159.833 21.8333,159.167 24.5,158.5C 24.5,151.833 24.5,145.167 24.5,138.5C 23.1667,138.5 21.8333,138.5 20.5,138.5C 21.1667,135.833 21.8333,133.167 22.5,130.5C 23.8333,130.5 25.1667,130.5 26.5,130.5C 26.5,131.833 26.5,133.167 26.5,134.5C 27.5,134.5 28.5,134.5 29.5,134.5C 29.5,131.833 29.5,129.167 29.5,126.5C 27.8333,126.5 26.1667,126.5 24.5,126.5C 24.7902,109.784 24.1235,93.1169 22.5,76.5C 22.8333,75.8333 23.1667,75.1667 23.5,74.5C 24.2811,75.7287 24.7811,77.062 25,78.5C 25.346,76.7818 25.846,75.1151 26.5,73.5C 27.8244,72.3131 28.8244,72.6465 29.5,74.5C 27.703,75.6951 26.703,77.3618 26.5,79.5C 30.2148,79.577 33.8815,79.2436 37.5,78.5C 37.5,75.8333 37.5,73.1667 37.5,70.5C 39.1667,70.5 40.8333,70.5 42.5,70.5C 42.5,71.8333 42.5,73.1667 42.5,74.5C 43.8333,74.5 45.1667,74.5 46.5,74.5 Z"/></g>
<g><path style="opacity:1" fill="#000016" d="M 16.5,160.5 C 17.3242,163.764 17.6576,167.098 17.5,170.5C 16.1429,169.41 15.1429,168.076 14.5,166.5C 14.5,158.5 14.5,150.5 14.5,142.5C 16.1635,105.509 17.1635,68.1756 17.5,30.5C 17.8333,51.8333 18.1667,73.1667 18.5,94.5C 18.4787,116.648 17.8121,138.648 16.5,160.5 Z"/></g>
<g><path style="opacity:1" fill="#bbbbbf" d="M 194.5,92.5 C 195.323,98.6749 192.656,101.675 186.5,101.5C 144.499,101.667 102.499,101.5 60.5,101C 58.9546,99.1781 58.288,97.0114 58.5,94.5C 58.8333,92.8333 59.1667,91.1667 59.5,89.5C 103.792,88.3388 148.125,88.1722 192.5,89C 193.305,90.1127 193.972,91.2794 194.5,92.5 Z"/></g>
<g><path style="opacity:1" fill="#07080d" d="M 194.5,92.5 C 193.972,91.2794 193.305,90.1127 192.5,89C 148.125,88.1722 103.792,88.3388 59.5,89.5C 59.1667,91.1667 58.8333,92.8333 58.5,94.5C 58.288,97.0114 58.9546,99.1781 60.5,101C 102.499,101.5 144.499,101.667 186.5,101.5C 186.539,103.359 185.706,104.692 184,105.5C 182.513,104.747 182.346,103.914 183.5,103C 180.819,102.336 178.485,103.003 176.5,105C 177.833,105.333 179.167,105.667 180.5,106C 178.893,107.049 178.227,108.549 178.5,110.5C 182.75,109.919 186.416,110.919 189.5,113.5C 146.832,113.333 104.165,113.5 61.5,114C 60.5842,114.278 59.9175,114.778 59.5,115.5C 58.5489,114.081 58.2155,112.415 58.5,110.5C 59.8734,110.657 61.2068,110.49 62.5,110C 58.6034,109.193 57.9368,107.526 60.5,105C 59.2298,104.1 58.2298,102.934 57.5,101.5C 56.8333,101.833 56.1667,102.167 55.5,102.5C 54.6852,100.724 53.5185,100.057 52,100.5C 51.5045,98.5273 51.3379,96.5273 51.5,94.5C 49.8333,94.5 48.1667,94.5 46.5,94.5C 46.5,87.8333 46.5,81.1667 46.5,74.5C 47.8333,74.5 49.1667,74.5 50.5,74.5C 50.3505,73.448 50.5172,72.448 51,71.5C 53.3816,73.2588 55.5483,75.2588 57.5,77.5C 58.3142,75.2338 58.8142,72.9005 59,70.5C 59.4973,74.5239 59.3307,78.5239 58.5,82.5C 64.6819,84.0875 71.0152,84.9208 77.5,85C 73.7675,85.9717 74.1009,86.4717 78.5,86.5C 82.4068,85.1888 86.4068,84.5222 90.5,84.5C 90.5,83.1667 90.5,81.8333 90.5,80.5C 94.3954,80.2937 98.2287,79.6271 102,78.5C 103.5,78.6667 105,78.8333 106.5,79C 103.833,79.3333 101.167,79.6667 98.5,80C 103.823,80.4994 109.156,80.666 114.5,80.5C 114.338,78.4727 114.505,76.4727 115,74.5C 115.687,77.4256 117.52,78.7589 120.5,78.5C 120.312,74.3298 118.312,71.6631 114.5,70.5C 114.5,69.5 114.5,68.5 114.5,67.5C 117.154,66.6575 119.821,66.1575 122.5,66C 123.743,67.1545 124.743,68.4878 125.5,70C 121.696,71.4943 122.029,72.3276 126.5,72.5C 126.5,73.8333 126.5,75.1667 126.5,76.5C 127.833,76.5 129.167,76.5 130.5,76.5C 130.5,77.5 130.5,78.5 130.5,79.5C 127.813,79.3359 125.146,79.5026 122.5,80C 127.823,80.4994 133.156,80.666 138.5,80.5C 138.5,81.8333 138.5,83.1667 138.5,84.5C 155.608,84.0441 172.441,84.7107 189,86.5C 190.608,84.9004 192.441,83.567 194.5,82.5C 192.711,81.377 192.378,80.0436 193.5,78.5C 194.842,80.0049 196.508,80.6715 198.5,80.5C 198.244,82.7925 198.577,84.9592 199.5,87C 197.7,88.8119 196.033,90.6452 194.5,92.5 Z"/></g>
<g><path style="opacity:1" fill="#467bf7" d="M 12.5,158.5 C 11.5285,159.399 10.8618,160.566 10.5,162C 11.595,168.587 15.2616,172.753 21.5,174.5C 23.8333,174.5 26.1667,174.5 28.5,174.5C 28.3072,177.811 29.3072,180.478 31.5,182.5C 31.7886,186.025 33.122,189.025 35.5,191.5C 28.5,191.5 21.5,191.5 14.5,191.5C 14.5,190.833 14.1667,190.5 13.5,190.5C 13.5,189.167 13.5,187.833 13.5,186.5C 10.224,184.438 6.89064,183.104 3.5,182.5C 2.66175,182.158 2.32842,181.492 2.5,180.5C 0.974374,177.439 1.30771,174.606 3.5,172C 3.33333,171.5 3.16667,171 3,170.5C 2.68268,172.301 2.01602,172.634 1,171.5C 0.937672,156.474 1.43767,141.474 2.5,126.5C 4.15701,139.498 5.49034,152.832 6.5,166.5C 6.39853,169.7 5.73186,172.7 4.5,175.5C 5.92126,178.009 7.58793,180.343 9.5,182.5C 9.83333,181.833 10.1667,181.167 10.5,180.5C 7.84655,176.326 7.17989,171.66 8.5,166.5C 8.53605,161.37 7.86938,156.37 6.5,151.5C 7.83333,144.833 7.83333,138.167 6.5,131.5C 7.59126,121.471 8.9246,111.638 10.5,102C 7.83333,99.6667 7.83333,97.3333 10.5,95C 9.22895,92.4461 8.56228,89.6128 8.5,86.5C 8.51656,75.9249 9.18323,75.9249 10.5,86.5C 11.1667,110.663 11.8333,134.663 12.5,158.5 Z"/></g>
<g><path style="opacity:1" fill="#0b012d" d="M 231.5,16.5 C 231.833,16.5 232.167,16.5 232.5,16.5C 233.778,16.7822 234.778,17.4489 235.5,18.5C 236.504,19.6828 237.338,21.0161 238,22.5C 238.832,70.6684 238.665,118.668 237.5,166.5C 237.667,120.165 237.5,73.8321 237,27.5C 236.689,25.444 236.189,23.444 235.5,21.5C 233.06,20.6641 231.727,18.9975 231.5,16.5 Z"/></g>
<g><path style="opacity:1" fill="#b6b5bb" d="M 189.5,113.5 C 192.167,114.167 193.833,115.833 194.5,118.5C 194.78,121.272 194.113,123.772 192.5,126C 148.5,126.667 104.5,126.667 60.5,126C 59.1772,125.184 58.5106,124.017 58.5,122.5C 58.298,120.05 58.6314,117.717 59.5,115.5C 59.9175,114.778 60.5842,114.278 61.5,114C 104.165,113.5 146.832,113.333 189.5,113.5 Z"/></g>
<g><path style="opacity:1" fill="#1e4584" d="M 16.5,20.5 C 15.8386,23.7871 15.3386,27.1204 15,30.5C 14.5,67.8318 14.3333,105.165 14.5,142.5C 14.5,150.5 14.5,158.5 14.5,166.5C 13.3351,119.335 13.1684,72.0018 14,24.5C 14.2004,22.6803 15.0337,21.347 16.5,20.5 Z"/></g>
<g><path style="opacity:1" fill="#7249d7" d="M 252.5,15.5 C 252.833,15.5 253.167,15.5 253.5,15.5C 253.5,69.1667 253.5,122.833 253.5,176.5C 252.833,177.167 252.167,177.833 251.5,178.5C 252.462,129.18 252.795,79.8464 252.5,30.5C 252.5,25.5 252.5,20.5 252.5,15.5 Z"/></g>
<g><path style="opacity:1" fill="#5739ab" d="M 235.5,18.5 C 236.5,18.5 237.5,18.5 238.5,18.5C 238.263,19.791 238.596,20.791 239.5,21.5C 239.833,70.5045 239.5,119.505 238.5,168.5C 237.248,170.001 236.248,171.668 235.5,173.5C 233.955,174.452 232.288,174.785 230.5,174.5C 231.263,173.732 232.263,173.232 233.5,173C 234.252,172.329 234.586,171.496 234.5,170.5C 235.5,169.167 236.5,167.833 237.5,166.5C 238.665,118.668 238.832,70.6684 238,22.5C 237.338,21.0161 236.504,19.6828 235.5,18.5 Z"/></g>
<g><path style="opacity:1" fill="#7b48f5" d="M 252.5,30.5 C 252.795,79.8464 252.462,129.18 251.5,178.5C 248.446,183.887 244.113,187.887 238.5,190.5C 232.463,190.829 226.463,190.496 220.5,189.5C 221.077,187.45 222.41,186.45 224.5,186.5C 224.5,183.833 224.5,181.167 224.5,178.5C 227.888,179.031 229.888,177.697 230.5,174.5C 232.288,174.785 233.955,174.452 235.5,173.5C 236.248,171.668 237.248,170.001 238.5,168.5C 239.5,119.505 239.833,70.5045 239.5,21.5C 239.317,19.0637 239.984,16.897 241.5,15C 248.647,12.9495 251.48,15.4495 250,22.5C 249.333,23.8333 248.667,23.8333 248,22.5C 247.51,21.2068 247.343,19.8734 247.5,18.5C 244.879,18.4772 243.545,19.8105 243.5,22.5C 244.995,24.9902 245.995,27.6568 246.5,30.5C 248.5,30.5 250.5,30.5 252.5,30.5 Z"/></g>
<g><path style="opacity:1" fill="#0c0630" d="M 234.5,170.5 C 234.586,171.496 234.252,172.329 233.5,173C 232.263,173.232 231.263,173.732 230.5,174.5C 229.5,174.5 228.5,174.5 227.5,174.5C 228.445,171.013 230.778,169.68 234.5,170.5 Z"/></g>
<g><path style="opacity:1" fill="#05050c" d="M 58.5,122.5 C 58.5106,124.017 59.1772,125.184 60.5,126C 104.5,126.667 148.5,126.667 192.5,126C 194.113,123.772 194.78,121.272 194.5,118.5C 195.892,120.273 197.059,122.273 198,124.5C 198.333,123.833 198.667,123.167 199,122.5C 199.49,123.793 199.657,125.127 199.5,126.5C 200.5,126.5 201.5,126.5 202.5,126.5C 202.5,127.833 202.5,129.167 202.5,130.5C 198.224,131.757 193.891,132.923 189.5,134C 190.5,134.333 191.5,134.667 192.5,135C 185.497,135.497 185.163,136.163 191.5,137C 190.112,137.889 190.278,138.389 192,138.5C 193.235,137.385 194.402,137.385 195.5,138.5C 196.167,137.833 196.833,137.167 197.5,136.5C 198.068,138.435 199.235,139.768 201,140.5C 202.762,140.056 202.595,139.556 200.5,139C 201.881,137.375 203.548,136.208 205.5,135.5C 210.989,137.497 216.656,139.83 222.5,142.5C 222.5,145.167 222.5,147.833 222.5,150.5C 223.552,150.351 224.552,150.517 225.5,151C 223.167,153.333 220.833,155.667 218.5,158C 216.167,158.333 213.833,158.667 211.5,159C 213.283,160.067 213.783,161.567 213,163.5C 212.346,162.304 211.846,162.304 211.5,163.5C 212.863,164.893 213.696,166.559 214,168.5C 214.333,167.833 214.667,167.167 215,166.5C 215.49,167.793 215.657,169.127 215.5,170.5C 216.5,170.5 217.5,170.5 218.5,170.5C 218.5,167.167 218.5,163.833 218.5,160.5C 221.28,159.771 224.113,159.104 227,158.5C 228.5,158.833 230,159.167 231.5,159.5C 228.604,161.208 225.937,163.208 223.5,165.5C 225.836,166.712 228.003,166.379 230,164.5C 230.945,164.905 231.612,165.572 232,166.5C 232.308,165.692 232.808,165.025 233.5,164.5C 234.904,166.547 234.571,168.214 232.5,169.5C 229.178,168.093 225.845,167.76 222.5,168.5C 223.263,169.719 224.263,170.719 225.5,171.5C 224.388,172.265 223.721,173.265 223.5,174.5C 222.693,180.439 221.027,186.106 218.5,191.5C 157.5,191.5 96.5,191.5 35.5,191.5C 33.122,189.025 31.7886,186.025 31.5,182.5C 31.085,179.632 32.085,177.465 34.5,176C 33.6721,175.085 32.6721,174.419 31.5,174C 32.731,172.817 32.731,171.651 31.5,170.5C 29.7801,169.045 27.7801,168.212 25.5,168C 26.6956,167.346 26.6956,166.846 25.5,166.5C 24.7379,167.628 24.0712,168.795 23.5,170C 19.498,170.563 17.8313,168.73 18.5,164.5C 23.9876,163.562 26.6543,160.229 26.5,154.5C 29.1667,154.5 31.8333,154.5 34.5,154.5C 35.0126,151.551 35.0126,148.718 34.5,146C 35.5784,145.326 36.2451,144.326 36.5,143C 35.3834,140.269 34.7167,137.435 34.5,134.5C 38.6546,135.96 42.8212,136.626 47,136.5C 48.2613,136.241 49.2613,135.574 50,134.5C 52.8249,135.584 52.9915,136.751 50.5,138C 52.7008,138.825 54.5341,138.325 56,136.5C 57.0665,138.283 58.5665,138.783 60.5,138C 59.5,137.667 58.5,137.333 57.5,137C 59.5,136.333 61.5,136.333 63.5,137C 62.9836,139.033 63.6503,139.033 65.5,137C 73.1667,136.333 80.8333,136.333 88.5,137C 86.5,137.333 84.5,137.667 82.5,138C 85.8333,138.667 89.1667,138.667 92.5,138C 91.5,137.667 90.5,137.333 89.5,137C 108.189,136.403 126.856,135.403 145.5,134C 137.833,133.667 130.167,133.333 122.5,133C 129.167,132.667 135.833,132.333 142.5,132C 125.145,132.073 107.811,131.906 90.5,131.5C 90.6399,133.124 89.9733,134.29 88.5,135C 84.5,135.667 80.5,135.667 76.5,135C 79.8333,134.667 83.1667,134.333 86.5,134C 82.3666,131.642 77.8666,130.475 73,130.5C 67.2921,131.619 61.6254,132.952 56,134.5C 52.6329,132.293 50.1329,129.293 48.5,125.5C 49.6636,122.933 50.3303,120.266 50.5,117.5C 51.8333,117.5 53.1667,117.5 54.5,117.5C 54.3505,118.552 54.5172,119.552 55,120.5C 55.2896,118.956 55.9563,117.623 57,116.5C 57.1909,118.708 57.6909,120.708 58.5,122.5 Z"/></g>
<g><path style="opacity:1" fill="#f0f0f0" d="M 49.5,141.5 C 100.501,141.333 151.501,141.5 202.5,142C 206.333,143.167 208.833,145.667 210,149.5C 210.667,156.5 210.667,163.5 210,170.5C 208.895,173.937 206.728,176.437 203.5,178C 151.833,178.667 100.167,178.667 48.5,178C 46.0833,176.337 44.25,174.171 43,171.5C 42.3333,163.5 42.3333,155.5 43,147.5C 45.0627,145.266 47.2294,143.266 49.5,141.5 Z"/></g>
<g><path style="opacity:1" fill="#0b0b10" d="M 53.5,152.5 C 101.834,152.333 150.168,152.5 198.5,153C 199.469,157.737 199.803,162.57 199.5,167.5C 150.5,167.5 101.5,167.5 52.5,167.5C 52.2213,162.405 52.5546,157.405 53.5,152.5 Z"/></g>
<g><path style="opacity:1" fill="#6b8be5" d="M 3.5,182.5 C 6.89064,183.104 10.224,184.438 13.5,186.5C 13.5,187.833 13.5,189.167 13.5,190.5C 8.64739,189.64 5.31406,186.973 3.5,182.5 Z"/></g>
<g><path style="opacity:1" fill="#6d48c9" d="M 223.5,174.5 C 224.833,174.5 226.167,174.5 227.5,174.5C 228.5,174.5 229.5,174.5 230.5,174.5C 229.888,177.697 227.888,179.031 224.5,178.5C 224.5,181.167 224.5,183.833 224.5,186.5C 222.41,186.45 221.077,187.45 220.5,189.5C 226.463,190.496 232.463,190.829 238.5,190.5C 238.5,190.833 238.5,191.167 238.5,191.5C 231.833,191.5 225.167,191.5 218.5,191.5C 221.027,186.106 222.693,180.439 223.5,174.5 Z"/></g>
</svg>
